<svg width="64" height="64" viewBox="0 0 64 64" fill="none" xmlns="http://www.w3.org/2000/svg">
<rect x="1" y="1" width="62" height="62" rx="31" fill="#282828" stroke="#5B5B5B" stroke-width="2"/>
<path d="M17.9863 44C17.4004 44 17.1836 43.6777 17.3359 43.0332L22.6973 19.7598C22.8496 19.1152 23.2188 18.793 23.8047 18.793H27.3379C27.7832 18.793 28.0352 19.1445 28.0938 19.8477L29.4824 35.6152C29.5645 36.5762 29.623 37.4375 29.6582 38.1992C29.6934 38.9492 29.7109 39.6758 29.7109 40.3789H29.8164C30.1328 39.6406 30.4785 38.9082 30.8535 38.1816C31.2285 37.4551 31.6855 36.5996 32.2246 35.6152L40.8906 19.8477C41.2773 19.1445 41.6934 18.793 42.1387 18.793H46.0938C46.6797 18.793 46.8965 19.1152 46.7441 19.7598L41.3828 43.0332C41.2305 43.6777 40.8613 44 40.2754 44H38.6582C38.0723 44 37.8555 43.6777 38.0078 43.0332L42.2617 24.5938C42.3789 24.0664 42.4961 23.5977 42.6133 23.1875H42.543L31.5039 42.9277C31.1055 43.6426 30.6367 44 30.0977 44H28.1641C27.625 44 27.3203 43.6426 27.25 42.9277L25.3164 23.1875H25.2461C25.1523 23.7031 25.0586 24.1719 24.9648 24.5938L20.7109 43.0332C20.5586 43.6777 20.1895 44 19.6035 44H17.9863Z" fill="white"/>
<path d="M10.5 24H53.5M10.5 31.5H53.5M10.5 39H52.5" stroke="#282828"/>
</svg>
